<svg width="15" height="15" viewBox="0 0 15 15" fill="none" xmlns="http://www.w3.org/2000/svg">
<g clip-path="url(#clip0_5400_25372)">
<path d="M11.3147 10.6566C10.2373 11.8725 9.03182 12.7047 8.46675 13.063C7.875 13.4382 7.12475 13.4382 6.533 13.063C5.96794 12.7047 4.76244 11.8725 3.6851 10.6566C3.48694 10.433 3.28928 10.192 3.09875 9.93436C3.09032 9.93483 3.08197 9.93529 3.07372 9.93576C2.53893 9.96579 2.04314 10.2617 1.79136 10.7617C1.55771 11.2258 1.23657 11.9544 0.999868 12.8464C0.780074 13.6748 1.39868 14.4205 2.21089 14.4537C3.11484 14.4905 4.73847 14.5313 7.5001 14.5313C10.2618 14.5313 11.8854 14.4905 12.7893 14.4537C13.6015 14.4205 14.2201 13.6748 14.0003 12.8464C13.7637 11.9544 13.4425 11.2258 13.2089 10.7617C12.9571 10.2617 12.4613 9.96579 11.9265 9.93576C11.9181 9.93529 11.9096 9.93483 11.901 9.93433C11.7105 10.192 11.5128 10.433 11.3147 10.6566Z" fill="#9FA3A9"/>
<path fill-rule="evenodd" clip-rule="evenodd" d="M2.5 5.64681C2.5 2.87471 4.73722 0.625 7.5 0.625C10.2628 0.625 12.5 2.87471 12.5 5.64681C12.5 7.41553 11.6067 8.91344 10.6131 10.0348C9.61734 11.1586 8.49284 11.9364 7.96484 12.2712C7.67956 12.4521 7.32044 12.4521 7.03516 12.2712C6.50716 11.9364 5.38266 11.1586 4.38688 10.0348C3.39328 8.91344 2.5 7.41553 2.5 5.64681ZM7.5 7.5C8.53553 7.5 9.375 6.66053 9.375 5.625C9.375 4.58947 8.53553 3.75 7.5 3.75C6.46447 3.75 5.625 4.58947 5.625 5.625C5.625 6.66053 6.46447 7.5 7.5 7.5Z" fill="#9FA3A9"/>
</g>
<defs>
<clipPath id="clip0_5400_25372">
<rect width="15" height="15" fill="white"/>
</clipPath>
</defs>
</svg>
