<svg width="15" height="15" viewBox="0 0 15 15" fill="none" xmlns="http://www.w3.org/2000/svg">
<path fill-rule="evenodd" clip-rule="evenodd" d="M12.0437 14.673C11.3752 15 10.5002 15 8.75 15H6.25C4.49984 15 3.62475 15 2.95628 14.673C2.36827 14.3854 1.89021 13.9265 1.5906 13.362C1.25 12.7202 1.25 11.8802 1.25 10.2V4.8C1.25 3.11984 1.25 2.27976 1.5906 1.63803C1.89021 1.07354 2.36827 0.614601 2.95628 0.32698C3.62475 0 4.49984 0 6.25 0H7.09315C7.70462 0 8.01036 0 8.29808 0.0663122C8.55317 0.125104 8.79703 0.222075 9.02071 0.353664C9.273 0.502084 9.48919 0.709626 9.92157 1.12471L12.5784 3.67529C13.0108 4.09037 13.227 4.29792 13.3816 4.54012C13.5187 4.75485 13.6197 4.98896 13.6809 5.23384C13.75 5.51005 13.75 5.80356 13.75 6.39058V10.2C13.75 11.8802 13.75 12.7202 13.4094 13.362C13.1098 13.9265 12.6317 14.3854 12.0437 14.673ZM11.9933 6H8.125C7.77982 6 7.5 5.73137 7.5 5.4V1.6864C7.5 1.28549 8.00491 1.08471 8.30021 1.3682L12.3248 5.2318C12.6201 5.51529 12.4109 6 11.9933 6Z" fill="#9FA3A9"/>
</svg>
