<svg width="15" height="15" viewBox="0 0 15 15" fill="none" xmlns="http://www.w3.org/2000/svg">
<g clip-path="url(#clip0_5400_25337)">
<path d="M3.4375 0.625C4.21597 0.625 4.81303 0.647906 5.24737 0.675063C5.93769 0.718225 6.46928 1.24982 6.51244 1.94011C6.53959 2.37446 6.5625 2.97153 6.5625 3.75C6.5625 4.52847 6.53959 5.12553 6.51244 5.55991C6.46928 6.25019 5.93769 6.78178 5.24737 6.82494C4.81303 6.85209 4.21597 6.875 3.4375 6.875C2.65902 6.875 2.06196 6.85209 1.62761 6.82494C0.937312 6.78178 0.405725 6.25019 0.362562 5.55987C0.335403 5.12553 0.3125 4.52847 0.3125 3.75C0.3125 2.97152 0.335406 2.37446 0.362562 1.94011C0.405725 1.24981 0.937312 0.718222 1.62761 0.675063C2.06196 0.647903 2.65902 0.625 3.4375 0.625Z" fill="#9FA3A9"/>
<path d="M3.4375 8.125C4.21597 8.125 4.81303 8.14791 5.24737 8.17506C5.93769 8.21822 6.46928 8.74981 6.51244 9.44013C6.53959 9.87447 6.5625 10.4715 6.5625 11.25C6.5625 12.0285 6.53959 12.6255 6.51244 13.0599C6.46928 13.7502 5.93769 14.2818 5.24737 14.3249C4.81303 14.3521 4.21597 14.375 3.4375 14.375C2.65902 14.375 2.06196 14.3521 1.62761 14.3249C0.937312 14.2818 0.405725 13.7502 0.362562 13.0599C0.335403 12.6255 0.3125 12.0285 0.3125 11.25C0.3125 10.4715 0.335406 9.87447 0.362562 9.44013C0.405725 8.74981 0.937312 8.21822 1.62761 8.17506C2.06196 8.14791 2.65902 8.125 3.4375 8.125Z" fill="#9FA3A9"/>
<path d="M11.25 0.9375C9.64825 0.9375 8.86294 0.965834 8.48763 0.98895C8.17006 1.00851 7.87013 1.22505 7.83216 1.59495C7.82047 1.70859 7.8125 1.85179 7.8125 2.03125C7.8125 2.21071 7.82047 2.35391 7.83216 2.46755C7.87013 2.83745 8.17006 3.05399 8.48763 3.07355C8.86294 3.09667 9.64825 3.125 11.25 3.125C12.8517 3.125 13.6371 3.09667 14.0124 3.07355C14.3299 3.05399 14.6299 2.83745 14.6678 2.46755C14.6795 2.35391 14.6875 2.21071 14.6875 2.03125C14.6875 1.85179 14.6795 1.70859 14.6678 1.59495C14.6299 1.22505 14.3299 1.00851 14.0124 0.98895C13.6371 0.965834 12.8517 0.9375 11.25 0.9375Z" fill="#9FA3A9"/>
<path d="M10.3125 4.375C9.32766 4.375 8.78 4.39681 8.47891 4.41809C8.13225 4.44259 7.84881 4.69534 7.82431 5.06503C7.81728 5.17141 7.8125 5.30413 7.8125 5.46875C7.8125 5.63338 7.81728 5.76609 7.82431 5.87247C7.84881 6.24216 8.13225 6.49491 8.47891 6.51941C8.78 6.54069 9.32766 6.5625 10.3125 6.5625C11.2973 6.5625 11.845 6.54069 12.1461 6.51941C12.4928 6.49491 12.7762 6.24216 12.8007 5.87247C12.8077 5.76609 12.8125 5.63338 12.8125 5.46875C12.8125 5.30413 12.8077 5.17141 12.8007 5.06503C12.7762 4.69534 12.4928 4.44259 12.1461 4.41809C11.845 4.39681 11.2973 4.375 10.3125 4.375Z" fill="#9FA3A9"/>
<path d="M10.3125 11.875C9.32766 11.875 8.78 11.8968 8.47891 11.9181C8.13225 11.9426 7.84881 12.1953 7.82431 12.565C7.81728 12.6714 7.8125 12.8041 7.8125 12.9688C7.8125 13.1334 7.81728 13.2661 7.82431 13.3725C7.84881 13.7422 8.13225 13.9949 8.47891 14.0194C8.78 14.0407 9.32766 14.0625 10.3125 14.0625C11.2973 14.0625 11.845 14.0407 12.1461 14.0194C12.4928 13.9949 12.7762 13.7422 12.8007 13.3725C12.8077 13.2661 12.8125 13.1334 12.8125 12.9688C12.8125 12.8041 12.8077 12.6714 12.8007 12.565C12.7762 12.1953 12.4928 11.9426 12.1461 11.9181C11.845 11.8968 11.2973 11.875 10.3125 11.875Z" fill="#9FA3A9"/>
<path d="M11.25 8.4375C9.64825 8.4375 8.86294 8.46584 8.48763 8.48894C8.17006 8.5085 7.87013 8.72506 7.83216 9.09494C7.82047 9.20859 7.8125 9.35178 7.8125 9.53125C7.8125 9.71072 7.82047 9.85391 7.83216 9.96756C7.87013 10.3374 8.17006 10.554 8.48763 10.5736C8.86294 10.5967 9.64825 10.625 11.25 10.625C12.8517 10.625 13.6371 10.5967 14.0124 10.5736C14.3299 10.554 14.6299 10.3374 14.6678 9.96756C14.6795 9.85391 14.6875 9.71072 14.6875 9.53125C14.6875 9.35178 14.6795 9.20859 14.6678 9.09494C14.6299 8.72506 14.3299 8.5085 14.0124 8.48894C13.6371 8.46584 12.8517 8.4375 11.25 8.4375Z" fill="#9FA3A9"/>
</g>
<defs>
<clipPath id="clip0_5400_25337">
<rect width="15" height="15" fill="white"/>
</clipPath>
</defs>
</svg>
