<svg width="16" height="16" viewBox="0 0 16 16" fill="none" xmlns="http://www.w3.org/2000/svg">
<path d="M8.00003 8.84746C8.46807 8.84746 8.84749 8.46804 8.84749 8C8.84749 7.53196 8.46807 7.15254 8.00003 7.15254C7.532 7.15254 7.15258 7.53196 7.15258 8C7.15258 8.46804 7.532 8.84746 8.00003 8.84746Z" fill="#9FA3A9"/>
<path d="M5.45766 8C5.45766 8.46804 5.07824 8.84746 4.6102 8.84746C4.14216 8.84746 3.76275 8.46804 3.76275 8C3.76275 7.53196 4.14216 7.15254 4.6102 7.15254C5.07824 7.15254 5.45766 7.53196 5.45766 8Z" fill="#9FA3A9"/>
<path d="M11.3899 8.84746C11.8579 8.84746 12.2373 8.46804 12.2373 8C12.2373 7.53196 11.8579 7.15254 11.3899 7.15254C10.9218 7.15254 10.5424 7.53196 10.5424 8C10.5424 8.46804 10.9218 8.84746 11.3899 8.84746Z" fill="#9FA3A9"/>
<path fill-rule="evenodd" clip-rule="evenodd" d="M8 0C3.58172 0 0 3.58172 0 8C0 12.4183 3.58172 16 8 16C12.4183 16 16 12.4183 16 8C16 3.58172 12.4183 0 8 0ZM1.08475 8C1.08475 4.18081 4.18081 1.08475 8 1.08475C11.8192 1.08475 14.9153 4.18081 14.9153 8C14.9153 11.8192 11.8192 14.9153 8 14.9153C4.18081 14.9153 1.08475 11.8192 1.08475 8Z" fill="#9FA3A9"/>
</svg>
