<svg width="17" height="17" viewBox="0 0 17 17" fill="none" xmlns="http://www.w3.org/2000/svg">
<g clip-path="url(#clip0_5438_25252)">
<path d="M14.166 8.50004C14.166 7.71733 14.8 7.08337 15.5827 7.08337V4.25004C15.5827 3.46733 14.9487 2.83337 14.166 2.83337H2.83268C2.04997 2.83337 1.4231 3.46733 1.4231 4.25004L1.41956 7.08337C2.20227 7.08692 2.83268 7.72087 2.83268 8.50004C2.83268 9.28275 2.19872 9.91671 1.41956 9.91671L1.41602 12.75C1.41602 13.5327 2.04997 14.1667 2.83268 14.1667H14.166C14.9487 14.1667 15.5827 13.5327 15.5827 12.75V9.91671C14.8 9.91671 14.166 9.28275 14.166 8.50004ZM11.0352 11.9L8.49935 10.2709L5.96352 11.9L6.72852 8.98525L4.3981 7.07983L7.40497 6.90275L8.49935 4.10837L9.59372 6.90275L12.6006 7.07983L10.2702 8.98525L11.0352 11.9Z" fill="#9FA3A9"/>
</g>
<defs>
<clipPath id="clip0_5438_25252">
<rect width="17" height="17" fill="white"/>
</clipPath>
</defs>
</svg>
