    <svg
      width="15"
      height="15"
      viewBox="0 0 15 15"
      fill="none"
      xmlns="http://www.w3.org/2000/svg"
    >
      <path
        d="M0.824455 7.88376L3.05068 9.56253L2.20521 12.266C2.06858 12.6853 2.06685 13.1389 2.20028 13.5593C2.33371 13.9797 2.59515 14.3444 2.94562 14.5988C3.29009 14.8615 3.70754 15.0022 4.13575 15C4.56396 14.9978 4.98002 14.8528 5.32193 14.5866L7.49875 12.9323L9.6762 14.5846C10.02 14.8458 10.4352 14.9876 10.8621 14.9898C11.2889 14.9919 11.7054 14.8542 12.0517 14.5966C12.398 14.3389 12.6563 13.9745 12.7893 13.5557C12.9224 13.1369 12.9234 12.6854 12.7923 12.266L11.9468 9.56253L14.173 7.88376C14.5164 7.62452 14.7717 7.25987 14.9024 6.84188C15.0331 6.4239 15.0325 5.97396 14.9007 5.55633C14.769 5.13871 14.5127 4.77476 14.1687 4.51648C13.8246 4.25819 13.4103 4.11878 12.9849 4.11815H10.2503L9.42043 1.44762C9.28994 1.02726 9.03351 0.660548 8.68813 0.400372C8.34276 0.140196 7.92628 0 7.49875 0C7.07122 0 6.65474 0.140196 6.30936 0.400372C5.96399 0.660548 5.70756 1.02726 5.57707 1.44762L4.74724 4.11815H2.01511C1.58972 4.11878 1.17539 4.25819 0.831322 4.51648C0.48725 4.77476 0.23103 5.13871 0.0992578 5.55633C-0.0325142 5.97396 -0.0330974 6.4239 0.0975914 6.84188C0.22828 7.25987 0.483556 7.62452 0.826957 7.88376H0.824455Z"
        fill="#9FA3A9"
      />
    </svg>