<svg width="16" height="15" viewBox="0 0 16 15" fill="none" xmlns="http://www.w3.org/2000/svg">
<path d="M1.40607 7.25615C5.43335 5.49227 8.11817 4.32929 9.4606 3.76745C13.298 2.16307 14.0943 1.88442 14.6145 1.87509C14.7288 1.87314 14.9835 1.90157 15.1497 2.03677C15.2878 2.1507 15.3267 2.30478 15.3461 2.41285C15.3634 2.52092 15.3872 2.76723 15.3677 2.95951C15.1605 5.15568 14.2606 10.4851 13.803 12.9449C13.6109 13.9858 13.2289 14.3347 12.8598 14.3688C12.057 14.443 11.4483 13.8358 10.6713 13.3238C9.45625 12.5224 8.76998 12.0237 7.58942 11.2418C6.22541 10.3382 7.11026 9.84143 7.88723 9.0298C8.0901 8.81735 11.6253 5.58493 11.6922 5.29175C11.7008 5.25507 11.7095 5.11835 11.6275 5.04631C11.5476 4.97404 11.4289 4.99878 11.3425 5.01831C11.2195 5.04609 9.27925 6.33688 5.51527 8.89048C4.96492 9.27112 4.46638 9.45667 4.01746 9.4469C3.52538 9.43627 2.57582 9.16652 1.87007 8.93605C1.00678 8.65328 0.318265 8.50376 0.378696 8.02351C0.408911 7.77351 0.752126 7.51765 1.40607 7.25615Z" fill="#9FA3A9"/>
</svg>
