<svg width="15" height="15" viewBox="0 0 15 15" fill="none" xmlns="http://www.w3.org/2000/svg">
<path fill-rule="evenodd" clip-rule="evenodd" d="M1.25407 8.09705L1.25317 8.09328L0 6.85473C0 3.02042 3.40888 0 7.5 0C9.59319 0 11.4948 0.784434 12.8608 2.06001C14.1771 3.2892 15 4.97999 15 6.85473C15 10.689 11.5911 13.7095 7.5 13.7095C7.30318 13.7095 7.10804 13.7025 6.91487 13.6889L5.63053 12.4195L5.61973 12.4218L1.25407 8.09705ZM1.11111 6.85473C1.11111 3.72991 3.9205 1.10885 7.5 1.10885C9.31461 1.10885 10.9439 1.7886 12.1016 2.86969C13.2154 3.90974 13.8889 5.31567 13.8889 6.85473C13.8889 9.97955 11.0795 12.6006 7.5 12.6006C7.32933 12.6006 7.16031 12.5946 6.99318 12.5828L6.9784 12.5817C6.61593 12.5554 6.26226 12.5019 5.91996 12.4235C5.81384 12.3992 5.71629 12.4024 5.63053 12.4195L1.25317 8.09328C1.15942 7.69995 1.11111 7.28671 1.11111 6.85473Z" fill="#9FA3A9"/>
<path fill-rule="evenodd" clip-rule="evenodd" d="M5.85688 13.5444C6.1959 13.6137 6.54339 13.6619 6.89759 13.6877L5.61973 12.4218C5.47338 12.4533 5.36255 12.5246 5.30376 12.5657C5.2055 12.6344 5.10256 12.7294 5.0189 12.8066L5.00302 12.8212C4.77495 13.0315 4.46237 13.3192 3.94097 13.611C3.7493 13.7183 3.51981 13.7906 3.28825 13.8348C3.34833 13.7562 3.40896 13.6716 3.46807 13.5812C3.76821 13.122 3.85377 12.624 3.83351 12.2188C3.82337 12.0161 3.78629 11.8239 3.72708 11.6585C3.6764 11.517 3.57959 11.3096 3.3932 11.1734C2.29174 10.3686 1.54919 9.33094 1.25407 8.09705L0 6.85473C0 9.00976 1.00573 10.7794 2.67828 12.0249L2.68076 12.0317C2.69923 12.0832 2.71842 12.1669 2.72378 12.274C2.7345 12.4884 2.68787 12.7452 2.53746 12.9753C2.3815 13.2139 2.20801 13.4027 2.05135 13.5721L2.04658 13.5773C1.99394 13.6342 1.93677 13.696 1.88808 13.7532C1.8412 13.8083 1.7773 13.8876 1.72853 13.9789C1.68572 14.0591 1.59651 14.2546 1.66669 14.4917C1.74257 14.7481 1.94517 14.8647 2.05731 14.9117C2.14292 14.9475 2.23202 14.9641 2.29002 14.973C2.35856 14.9836 2.43476 14.9909 2.51459 14.9952C2.67468 15.0038 2.86926 15.0015 3.08028 14.9823C3.49447 14.9447 4.02122 14.8374 4.48446 14.5781C5.1213 14.2217 5.51066 13.8628 5.75556 13.637L5.75694 13.6358C5.79645 13.5993 5.8286 13.5697 5.85688 13.5444ZM5.85688 13.5444C5.79481 13.5318 5.73304 13.5184 5.67155 13.5043C5.76553 13.5258 5.84479 13.5113 5.8925 13.4952C5.9199 13.486 5.93722 13.4762 5.94252 13.473L5.94125 13.4739C5.93217 13.4802 5.91342 13.4947 5.87931 13.5246L5.85688 13.5444ZM2.66767 11.9998C2.67532 12.0115 2.6961 12.0383 2.73683 12.0681C2.71723 12.0538 2.69771 12.0394 2.67828 12.0249C2.6738 12.013 2.67014 12.0048 2.66767 11.9998ZM2.66767 11.9998C2.66516 11.9959 2.66414 11.9936 2.66414 11.9936L2.66528 11.9953L2.66767 11.9998ZM2.44244 13.874L2.44523 13.8747C2.4433 13.8743 2.44244 13.874 2.44244 13.874Z" fill="#9FA3A9"/>
<path fill-rule="evenodd" clip-rule="evenodd" d="M7.5 1.10885C3.9205 1.10885 1.11111 3.72991 1.11111 6.85473C1.11111 7.28671 1.15942 7.69995 1.25317 8.09328L5.63053 12.4195C5.71629 12.4024 5.81384 12.3992 5.91996 12.4235C6.26226 12.5019 6.61593 12.5554 6.9784 12.5817L6.99318 12.5828C7.16031 12.5946 7.32933 12.6006 7.5 12.6006C11.0795 12.6006 13.8889 9.97955 13.8889 6.85473C13.8889 5.31567 13.2154 3.90974 12.1016 2.86969C10.9439 1.7886 9.31461 1.10885 7.5 1.10885ZM7.5 7.83094C7.97941 7.83094 8.36806 7.44309 8.36806 6.96465C8.36806 6.48621 7.97941 6.09835 7.5 6.09835C7.02059 6.09835 6.63194 6.48621 6.63194 6.96465C6.63194 7.44309 7.02059 7.83094 7.5 7.83094ZM4.89583 6.96465C4.89583 7.44309 4.50719 7.83094 4.02778 7.83094C3.54836 7.83094 3.15972 7.44309 3.15972 6.96465C3.15972 6.48621 3.54836 6.09835 4.02778 6.09835C4.50719 6.09835 4.89583 6.48621 4.89583 6.96465ZM10.9722 7.83094C11.4516 7.83094 11.8403 7.44309 11.8403 6.96465C11.8403 6.48621 11.4516 6.09835 10.9722 6.09835C10.4928 6.09835 10.1042 6.48621 10.1042 6.96465C10.1042 7.44309 10.4928 7.83094 10.9722 7.83094Z" fill="#9FA3A9"/>
<path d="M5.61973 12.4218L1.25407 8.09705C1.54919 9.33094 2.29174 10.3686 3.3932 11.1734C3.57959 11.3096 3.6764 11.517 3.72708 11.6585C3.78629 11.8239 3.82337 12.0161 3.83351 12.2188C3.85377 12.624 3.76821 13.122 3.46807 13.5812C3.40896 13.6716 3.34833 13.7562 3.28825 13.8348C3.51981 13.7906 3.7493 13.7183 3.94097 13.611C4.46237 13.3192 4.77495 13.0315 5.00302 12.8212L5.0189 12.8066C5.10256 12.7294 5.2055 12.6344 5.30376 12.5657C5.36255 12.5246 5.47338 12.4533 5.61973 12.4218Z" fill="#9FA3A9"/>
</svg>
